# xmcd CD database file generated by Grip 2.95
# 
# Track frame offsets:
#       150
#       15675
#       36150
#       50950
#       65400
#       80175
#       95100
#       113500
#       126393
#       142068
#       162235
#       178375
# 
# Disc length: 2552 seconds
# 
# Revision: 3
# Processed by: cddbd v1.4PL0 Copyright (c) Steve Scherf et al.
# Submitted via: Grip 2.95
# 
DISCID=b709f60c
DTITLE=Alcione - Romântica
DYEAR=1900
DGENRE=
TTITLE0=Menino Sem Juízo
TTITLE1=Seu Rio, Meu Mar
TTITLE2=Rio Antigo
TTITLE3=Pra Que Chorar
TTITLE4=Gostoso Veneno
TTITLE5=Faca de Ponta
TTITLE6=Sufoco
TTITLE7=O Surdo
TTITLE8=Amantes da Noite
TTITLE9=Não Deixe o Samba Morrer
TTITLE10=Recusa
TTITLE11=Cajueiro Velho
EXTD=
EXTT0=
EXTT1=
EXTT2=
EXTT3=
EXTT4=
EXTT5=
EXTT6=
EXTT7=
EXTT8=
EXTT9=
EXTT10=
EXTT11=
PLAYORDER=
